<?xml version="1.0" standalone="no"?>
<!DOCTYPE svg PUBLIC "-//W3C//DTD SVG 20010904//EN"
 "http://www.w3.org/TR/2001/REC-SVG-20010904/DTD/svg10.dtd">
<svg version="1.0" xmlns="http://www.w3.org/2000/svg"
 width="392.000000pt" height="392.000000pt" viewBox="0 0 392.000000 392.000000"
 preserveAspectRatio="xMidYMid meet">
<metadata>
Created by potrace 1.14, written by Peter Selinger 2001-2017
</metadata>
<g transform="translate(0.000000,392.000000) scale(0.100000,-0.100000)"
fill="#000000" stroke="none">
<path d="M1712 3883 c-366 -75 -392 -82 -506 -137 -481 -234 -797 -673 -922
-1281 -40 -198 -48 -282 -46 -525 1 -107 3 -208 6 -225 2 -16 7 -52 10 -80 3
-27 8 -62 11 -77 3 -16 7 -38 9 -50 8 -45 47 -204 62 -253 39 -127 118 -312
158 -370 12 -16 20 -32 20 -35 -2 -11 128 -209 174 -263 63 -75 224 -227 288
-272 38 -27 71 -52 74 -55 3 -3 16 -12 30 -19 310 -180 612 -248 970 -217 94
8 106 9 200 26 36 6 76 13 90 15 50 8 217 55 285 80 86 32 183 79 252 122 29
19 55 33 58 33 3 0 14 8 24 18 11 9 26 22 33 27 87 67 146 126 268 271 80 95
238 387 285 524 1 3 4 12 8 20 9 23 52 166 60 205 3 11 12 47 20 80 9 33 18
76 21 95 3 19 8 46 10 60 17 88 29 259 29 390 0 89 -9 285 -13 285 -1 0 -3 16
-6 35 -2 19 -6 49 -9 65 -3 17 -8 46 -11 66 -4 30 -44 207 -58 259 -38 141
-140 388 -206 497 -22 36 -40 67 -40 70 0 12 -122 156 -185 218 -193 192 -451
316 -780 374 -124 21 -167 26 -320 37 -178 12 -244 9 -353 -13z m458 -58 c512
-83 826 -254 1071 -581 121 -162 242 -454 273 -659 4 -22 8 -47 11 -55 4 -17
13 -85 22 -174 14 -129 6 -495 -12 -611 -3 -16 -7 -48 -10 -70 -10 -73 -57
-290 -66 -307 -5 -10 -8 -18 -5 -18 5 0 -62 -201 -89 -265 -48 -117 -151 -301
-192 -345 -7 -8 -23 -26 -34 -40 -58 -71 -152 -160 -169 -160 -5 0 -10 -4 -10
-9 0 -19 -231 -151 -264 -151 -8 0 -16 -3 -18 -7 -3 -7 -138 -57 -183 -68
-170 -41 -242 -56 -305 -65 -41 -6 -86 -14 -100 -17 -14 -3 -101 -7 -195 -8
-152 -3 -261 5 -305 22 -8 4 -19 5 -24 4 -7 -1 -92 20 -134 34 -7 3 -14 5 -17
5 -13 2 -152 64 -193 87 -149 82 -320 225 -431 358 -83 100 -206 308 -264 445
-32 77 -76 203 -81 233 -1 7 -5 17 -9 23 -4 7 -8 28 -9 48 -2 20 -6 36 -9 36
-4 0 -9 17 -12 38 -3 20 -8 46 -10 57 -3 11 -8 43 -12 70 -4 28 -9 61 -11 75
-8 55 -16 200 -17 285 0 95 11 293 17 304 2 3 7 31 10 61 4 30 18 107 32 170
118 528 412 921 840 1125 77 37 137 55 312 95 l217 49 175 -4 c96 -2 191 -7
210 -10z"/>
<path d="M1782 3518 c-4 -3 -61 -21 -126 -38 -176 -46 -203 -57 -291 -115
-299 -198 -501 -580 -579 -1095 -27 -173 -27 -553 -1 -664 3 -12 7 -34 9 -51
25 -192 131 -473 245 -647 208 -320 544 -513 886 -509 97 0 205 10 265 22 30
6 60 12 65 14 122 24 297 121 400 220 26 25 51 45 56 45 5 0 9 3 9 8 0 4 13
21 28 38 59 69 72 84 72 90 0 2 11 17 25 32 14 15 25 30 25 34 0 4 13 27 29
51 57 83 170 319 186 387 2 8 15 53 28 100 14 47 28 101 31 120 3 19 9 46 11
60 6 27 12 72 23 190 12 118 5 343 -13 440 -3 14 -7 43 -10 66 -2 22 -13 79
-24 125 -11 47 -22 96 -25 109 -2 14 -12 50 -21 80 -102 340 -227 549 -409
686 -105 79 -274 148 -423 174 -35 5 -75 12 -90 15 -29 5 -204 15 -311 18 -35
1 -66 -1 -70 -5z m402 -88 c223 -50 387 -137 519 -274 64 -66 157 -200 183
-262 9 -21 22 -52 30 -69 59 -128 118 -395 119 -537 0 -27 3 -48 6 -48 7 0 3
-305 -5 -370 -3 -25 -8 -72 -11 -105 -3 -33 -7 -67 -10 -75 -2 -8 -6 -31 -9
-50 -3 -19 -8 -46 -12 -60 -3 -14 -7 -34 -9 -45 -8 -41 -45 -163 -75 -244
-103 -279 -285 -486 -525 -596 -33 -15 -67 -31 -77 -36 -72 -35 -286 -69 -413
-64 -172 5 -318 48 -430 125 -24 16 -46 30 -50 30 -3 0 -20 12 -36 28 -173
159 -239 254 -360 517 -18 40 -70 214 -72 242 -1 15 -5 30 -9 33 -3 3 -9 23
-12 45 -11 81 -17 121 -22 145 -9 46 -17 174 -17 290 0 319 65 621 186 861 67
132 142 234 237 322 100 93 177 133 350 184 l145 42 145 -4 c95 -3 176 -12
234 -25z"/>
</g>
</svg>
