<?xml version="1.0" standalone="no"?>
<!DOCTYPE svg PUBLIC "-//W3C//DTD SVG 20010904//EN"
 "http://www.w3.org/TR/2001/REC-SVG-20010904/DTD/svg10.dtd">
<svg version="1.0" xmlns="http://www.w3.org/2000/svg"
 width="225.000000pt" height="225.000000pt" viewBox="0 0 225.000000 225.000000"
 preserveAspectRatio="xMidYMid meet">
<metadata>
Created by potrace 1.14, written by Peter Selinger 2001-2017
</metadata>
<g transform="translate(0.000000,225.000000) scale(0.100000,-0.100000)"
fill="#000000" stroke="none">
<path d="M910 2091 c-303 -64 -533 -251 -670 -543 -114 -244 -132 -564 -45
-782 25 -62 171 -316 181 -316 3 0 -20 46 -51 103 -89 162 -116 226 -136 322
-68 328 54 718 295 941 120 112 264 185 436 220 122 24 314 16 433 -20 254
-76 446 -231 574 -466 76 -137 108 -289 100 -469 -10 -234 -91 -428 -251 -599
-52 -55 -158 -138 -214 -166 -146 -74 -432 -110 -576 -71 -130 34 -260 130
-302 220 -54 115 -20 275 142 665 98 235 297 680 304 680 4 0 30 -93 59 -207
61 -238 132 -508 202 -767 27 -99 47 -181 45 -183 -2 -2 -20 18 -39 44 -53 72
-145 158 -211 197 -70 42 -190 83 -266 91 l-55 5 65 -25 c147 -56 249 -115
317 -184 66 -66 141 -171 203 -286 18 -33 38 -66 45 -74 16 -16 60 -8 68 13 7
19 -367 1512 -384 1532 -7 9 -25 14 -43 12 -37 -4 -41 -11 -232 -441 -154
-343 -245 -567 -292 -717 -32 -103 -36 -127 -36 -230 -1 -108 1 -118 28 -170
63 -119 222 -230 381 -265 162 -36 432 0 601 81 165 78 323 244 419 439 65
134 94 245 102 390 24 502 -326 941 -822 1031 -107 19 -270 17 -375 -5z"/>
</g>
</svg>
